<svg xmlns="http://www.w3.org/2000/svg" width="192" height="192">
  <defs>
    <clipPath id="a">
      <circle cx="96" cy="96" r="96" fill="none"/>
    </clipPath>
  </defs>
  <g fill="#ffffff">
    <path d="M0 0h192v192H0z"/>
    <g clip-path="url(#a)">
      <path fill="#000000" d="M0 0h192v192H0z"/>
      <path d="M96 49.333c25.667 0 46.667 21 46.667 46.667s-21 46.667-46.667 46.667-46.667-21-46.667-46.667 21-46.667 46.667-46.667zM120.733 124c7.467-7 12.6-16.8 12.6-28 0-20.533-16.8-37.333-37.333-37.333-20.533 0-37.333 16.8-37.333 37.333 0 11.2 5.133 21 12.6 28C77.8 118.4 86.2 114.667 96 114.667s18.2 3.733 24.733 9.333zM72.667 82c2.8 0 4.666 1.867 4.666 4.667s-1.866 4.666-4.666 4.666c-2.8 0-4.667-1.866-4.667-4.666 0-2.8 1.867-4.667 4.667-4.667zm18.666-9.333c0 2.8-1.866 4.666-4.666 4.666-2.8 0-4.667-1.866-4.667-4.666 0-2.8 1.867-4.667 4.667-4.667s4.666 1.867 4.666 4.667zm28 9.333c2.8 0 4.667 1.867 4.667 4.667s-1.867 4.666-4.667 4.666-4.666-1.866-4.666-4.666c0-2.8 1.866-4.667 4.666-4.667zM101.4 70.156a4.667 4.667 0 0 1 8.475 3.584c-1.563 7.98-3.128 15.96-4.695 23.94a9.333 9.333 0 1 1-16.954-6.874z" fill="#fff" fill-rule="evenodd"/>
    </g>
  </g>
</svg>
