<svg xmlns="http://www.w3.org/2000/svg" width="192" height="192">
  <defs>
    <clipPath id="a">
      <circle cx="96" cy="96" r="96" fill="none"/>
    </clipPath>
  </defs>
  <g fill="none">
    <path d="M0 0h192v192H0z"/>
    <g clip-path="url(#a)">
      <path fill="#ffca28" d="M0 0h192v192H0z"/>
      <path d="M114.667 91.333c7.746 0 13.953-6.253 13.953-14 0-7.746-6.207-14-13.953-14-7.747 0-14 6.254-14 14 0 7.747 6.253 14 14 14zm-37.334 0c7.747 0 13.954-6.253 13.954-14 0-7.746-6.207-14-13.954-14-7.746 0-14 6.254-14 14 0 7.747 6.254 14 14 14zm0 9.334c-10.873 0-32.666 5.46-32.666 16.333v11.667H110V117c0-10.873-21.793-16.333-32.667-16.333zm37.334 0c-1.354 0-2.894.093-4.527.233 5.413 3.92 9.193 9.193 9.193 16.1v11.667h28V117c0-10.873-21.793-16.333-32.666-16.333z" fill="#fff" fill-rule="evenodd"/>
    </g>
  </g>
</svg>
