<svg xmlns="http://www.w3.org/2000/svg" width="192" height="192">
  <defs>
    <clipPath id="a">
      <circle cx="96" cy="96" r="96" fill="none"/>
    </clipPath>
  </defs>
  <g fill="none">
    <path d="M0 0h192v192H0z"/>
    <g clip-path="url(#a)">
      <path fill="#ff8a65" d="M0 0h192v192H0z"/>
      <path d="M112.333 105.333h-3.686l-1.307-1.26c4.573-5.32 7.327-12.226 7.327-19.74C114.667 67.58 101.087 54 84.333 54 67.58 54 54 67.58 54 84.333c0 16.754 13.58 30.334 30.333 30.334 7.514 0 14.42-2.754 19.74-7.327l1.26 1.307v3.686l23.334 23.287 6.953-6.953zm-28 0c-11.62 0-21-9.38-21-21s9.38-21 21-21 21 9.38 21 21-9.38 21-21 21z" fill="#fff" fill-rule="evenodd"/>
    </g>
  </g>
</svg>
