<svg xmlns="http://www.w3.org/2000/svg" width="192" height="192">
  <defs>
    <clipPath id="a">
      <circle cx="96" cy="96" r="96" fill="none"/>
    </clipPath>
  </defs>
  <g fill="#ffffff">
    <path d="M0 0h192v192H0z"/>
    <g clip-path="url(#a)">
      <path fill="#000000" d="M0 0h192v192H0z"/>
      <path d="M65.667 142.667C59.223 142.667 54 137.443 54 131s5.223-11.667 11.667-11.667c6.443 0 11.666 5.224 11.666 11.667s-5.223 11.667-11.666 11.667zm30.333-56c6.443 0 11.667 5.223 11.667 11.666V131c0 6.443-5.224 11.667-11.667 11.667S84.333 137.443 84.333 131V98.333c0-6.443 5.224-11.666 11.667-11.666zm30.333-37.334C132.777 49.333 138 54.557 138 61v70c0 6.443-5.223 11.667-11.667 11.667-6.443 0-11.666-5.224-11.666-11.667V61c0-6.443 5.223-11.667 11.666-11.667z" fill="#fff" fill-rule="evenodd"/>
    </g>
  </g>
</svg>
