<svg xmlns="http://www.w3.org/2000/svg" width="192" height="192">
  <defs>
    <clipPath id="a">
      <circle cx="96" cy="96" r="96" fill="none"/>
    </clipPath>
  </defs>
  <g fill="#ffffff">
    <path d="M0 0h192v192H0z"/>
    <g clip-path="url(#a)">
      <path fill="#000000" d="M0 0h192v192H0z"/>
      <path d="M110 78.537a21 21 0 1 0 8.932 21.56l15.699 15.704a7 7 0 0 1 0 9.898l-6.599 6.598a7 7 0 0 1-9.898 0L110 124.168v11.499a7 7 0 0 1-7 7h-9.333a7 7 0 0 1-7-7v-11.499l-8.134 8.13a7 7 0 0 1-9.898 0l-6.599-6.6a7 7 0 0 1 0-9.897l8.13-8.134h-11.5a7 7 0 0 1-7-7v-9.334a7 7 0 0 1 7-7h11.5l-8.13-8.134a7 7 0 0 1 0-9.898l6.599-6.598a7 7 0 0 1 9.898 0l8.134 8.129V56.333a7 7 0 0 1 7-7H103a7 7 0 0 1 7 7zm-11.667 26.796a9.333 9.333 0 1 1 0-18.666 9.333 9.333 0 0 1 0 18.666z" fill="#fff"/>
    </g>
  </g>
</svg>
