<svg xmlns="http://www.w3.org/2000/svg" width="192" height="192">
  <defs>
    <clipPath id="a">
      <circle cx="96" cy="96" r="96" fill="none"/>
    </clipPath>
  </defs>
  <g fill="none">
    <path d="M0 0h192v192H0z"/>
    <g clip-path="url(#a)">
      <path fill="#ffa000" d="M0 0h192v192H0z"/>
      <path d="M65.667 128.667a7 7 0 0 1 0-14h4.666a7 7 0 0 0 0-14H61a7 7 0 0 1 0-14h16.333a4.667 4.667 0 0 0 0-9.334 7 7 0 0 1 0-14h69.86c2.926 0 5.143 2.744 4.639 5.745l-9.333 55.533a4.765 4.765 0 0 1-4.639 4.056zm20.276-9.334h48.006l7.822-46.666H93.667zm42.08-7H94.199l5.404-32.666H133.5zM47 128.667a7 7 0 1 1 0-14 7 7 0 0 1 0 14z" fill="#fff" fill-rule="evenodd"/>
    </g>
  </g>
</svg>
