<svg xmlns="http://www.w3.org/2000/svg" width="192" height="192">
  <defs>
    <clipPath id="a">
      <circle cx="96" cy="96" r="96" fill="none"/>
    </clipPath>
  </defs>
  <g fill="none">
    <path d="M0 0h192v192H0z"/>
    <g clip-path="url(#a)">
      <path fill="#ff8a65" d="M0 0h192v192H0z"/>
      <path d="M117 115.04c-3.547 0-6.72 1.4-9.147 3.593L74.58 99.267c.233-1.074.42-2.147.42-3.267s-.187-2.193-.42-3.267l32.9-19.18c2.52 2.334 5.833 3.78 9.52 3.78 7.747 0 14-6.253 14-14 0-7.746-6.253-14-14-14s-14 6.254-14 14c0 1.12.187 2.194.42 3.267l-32.9 19.18C68 83.447 64.687 82 61 82c-7.747 0-14 6.253-14 14s6.253 14 14 14c3.687 0 7-1.447 9.52-3.78l33.227 19.413c-.234.98-.374 2.007-.374 3.034 0 7.513 6.114 13.626 13.627 13.626 7.513 0 13.627-6.113 13.627-13.626 0-7.514-6.114-13.627-13.627-13.627" fill="#fff" fill-rule="evenodd"/>
    </g>
  </g>
</svg>
