<svg xmlns="http://www.w3.org/2000/svg" width="192" height="192">
  <defs>
    <clipPath id="a">
      <circle cx="96" cy="96" r="96" fill="none"/>
    </clipPath>
  </defs>
  <g fill="#ffffff">
    <path d="M0 0h192v192H0z"/>
    <g clip-path="url(#a)">
      <path fill="#000000" d="M0 0h192v192H0z"/>
      <path d="M133.366 118.195v-44.38l-15.717-15.718 9.888-9.893L147.333 68v50.26l-.032.019v5.735l-19.778 19.782-9.874-9.88zm-74.732-.014l15.717 15.722-9.888 9.893L44.667 124V73.74l.032-.019v-5.735l19.778-19.782 9.874 9.88-15.717 15.721v44.38zm16.37-15.167a7.021 7.021 0 1 1 7.02-7.023 7.019 7.019 0 0 1-7.02 7.018zm20.991 0a7.021 7.021 0 1 1 7.019-7.023 7.019 7.019 0 0 1-7.019 7.018zm20.991 0a7.021 7.021 0 1 1 7.019-7.023 7.019 7.019 0 0 1-7.019 7.018z" fill="#fff" fill-rule="evenodd"/>
    </g>
  </g>
</svg>
