<svg xmlns="http://www.w3.org/2000/svg" width="192" height="192">
  <defs>
    <clipPath id="a">
      <circle cx="96" cy="96" r="96" fill="none"/>
    </clipPath>
  </defs>
  <g fill="#ffffff">
    <path d="M0 0h192v192H0z"/>
    <g clip-path="url(#a)">
      <path fill="#000000" d="M0 0h192v192H0z"/>
      <path d="M101.404 49.973l10.91 11.074c3.669 3.724 2.18 5.114-.186 7.518l-10.659 10.817c-2.366 2.403-2.006 5.334-.014 7.355l7.243 7.35c1.997 2.025 4.877 2.389 7.243-.014l10.658-10.818c2.366-2.403 5.414-2.212 7.42-.186l10.822 10.99c1.998 2.03 2.194 5.128-.177 7.532l-34.967 35.49a21.7 21.7 0 0 1-31.015 0l-31.547-32.023c-2.006-2.03-2.179-5.147.187-7.546l10.58-10.738c2.365-2.403 2.86-4.62.863-6.65l-7.985-8.106c-2.002-2.025-2.025-5.283.34-7.686l10.277-10.43c2.366-2.403 5.469-2.268 7.466-.243l7.99 8.106c1.997 2.03 4.106 1.606 6.472-.793L93.984 50.15c2.366-2.403 5.423-2.207 7.42-.177z" fill="#fff" fill-rule="evenodd"/>
    </g>
  </g>
</svg>
