<svg xmlns="http://www.w3.org/2000/svg" width="192" height="192">
  <defs>
    <clipPath id="a">
      <circle cx="96" cy="96" r="96" fill="none"/>
    </clipPath>
  </defs>
  <g fill="none">
    <path d="M0 0h192v192H0z"/>
    <g clip-path="url(#a)">
      <path fill="#ffca28" d="M0 0h192v192H0z"/>
      <path d="M54 110h84v18.676c0 5.152-4.167 9.324-9.31 9.324H63.31c-5.143 0-9.31-4.19-9.31-9.324zm0-46.704C54 58.163 58.167 54 63.31 54h65.38c5.143 0 9.31 4.2 9.31 9.296v32.741c0 5.134-4.167 9.296-9.31 9.296H63.31c-5.143 0-9.31-4.2-9.31-9.296zm9.333.037h65.334v14H63.333zm0 25.69c0-1.306.999-2.356 2.357-2.356h4.62c1.307 0 2.357.998 2.357 2.356v4.62c0 1.307-.999 2.357-2.357 2.357h-4.62c-1.307 0-2.357-.999-2.357-2.357zm0 32.667c0-1.307.999-2.357 2.357-2.357h4.62c1.307 0 2.357.999 2.357 2.357v4.62c0 1.307-.999 2.357-2.357 2.357h-4.62c-1.307 0-2.357-.999-2.357-2.357z" fill="#fff" fill-rule="evenodd"/>
    </g>
  </g>
</svg>
