<svg xmlns="http://www.w3.org/2000/svg" width="192" height="192">
  <defs>
    <clipPath id="a">
      <circle cx="96" cy="96" r="96" fill="none"/>
    </clipPath>
  </defs>
  <g fill="none">
    <path d="M0 0h192v192H0z"/>
    <g clip-path="url(#a)">
      <path fill="#ffca28" d="M0 0h192v192H0z"/>
      <path d="M145.793 122.866h-26.366v-58.6a5.535 5.535 0 0 0-5.04-5.46 5.516 5.516 0 0 0-5.88 4.518L87.693 105.03V64.267a5.54 5.54 0 0 0-4.61-5.521 5.507 5.507 0 0 0-6.123 3.733L45.6 125.316a5.969 5.969 0 0 0-.933 3.155 5.544 5.544 0 0 0 4.186 5.446 5.493 5.493 0 0 0 6.22-2.856l21.56-43.26v40.763c.056 2.52 1.792 4.69 4.228 5.273a5.488 5.488 0 0 0 6.132-2.776l21.374-42.84v40.203c.051 3.033 2.501 5.46 5.506 5.46h31.874a5.581 5.581 0 0 0 5.044-5.577c0-2.893-2.188-5.315-5.04-5.581l.047.14z" fill="#fff"/>
    </g>
  </g>
</svg>
