<svg xmlns="http://www.w3.org/2000/svg" width="192" height="192">
  <defs>
    <clipPath id="a">
      <circle cx="96" cy="96" r="96" fill="none"/>
    </clipPath>
  </defs>
  <g fill="none">
    <path d="M0 0h192v192H0z"/>
    <g clip-path="url(#a)">
      <path fill="#ffa000" d="M0 0h192v192H0z"/>
      <path d="M133.333 77.333H120.22a27.929 27.929 0 0 0-8.493-9.146l7.606-7.607-6.58-6.58-10.126 10.127A28.306 28.306 0 0 0 96 63.333c-2.287 0-4.48.28-6.58.794L79.247 54l-6.58 6.58 7.56 7.607a28.29 28.29 0 0 0-8.447 9.146H58.667v9.334h9.753c-.233 1.54-.42 3.08-.42 4.666V96h-9.333v9.333H68V110c0 1.587.187 3.127.42 4.667h-9.753V124H71.78c4.853 8.353 13.86 14 24.22 14s19.367-5.647 24.22-14h13.113v-9.333h-9.753c.233-1.54.42-3.08.42-4.667v-4.667h9.333V96H124v-4.667c0-1.586-.187-3.126-.42-4.666h9.753zm-28 37.334H86.667v-9.334h18.666zm0-18.667H86.667v-9.333h18.666z" fill="#fff" fill-rule="evenodd"/>
    </g>
  </g>
</svg>
