<svg xmlns="http://www.w3.org/2000/svg" width="192" height="192">
  <defs>
    <clipPath id="a">
      <circle cx="96" cy="96" r="96" fill="none"/>
    </clipPath>
  </defs>
  <g fill="none">
    <path d="M0 0h192v192H0z"/>
    <g clip-path="url(#a)">
      <path fill="#ffca28" d="M0 0h192v192H0z"/>
      <path d="M96 49.333C70.24 49.333 49.333 70.24 49.333 96S70.24 142.667 96 142.667 142.667 121.76 142.667 96 121.76 49.333 96 49.333zm-4.667 83.674C72.9 130.72 58.667 115.04 58.667 96c0-2.893.373-5.647.98-8.353L82 110v4.667C82 119.8 86.2 124 91.333 124zm32.2-11.854c-1.213-3.78-4.666-6.486-8.866-6.486H110v-14A4.68 4.68 0 0 0 105.333 96h-28v-9.333h9.334A4.68 4.68 0 0 0 91.333 82v-9.333h9.334c5.133 0 9.333-4.2 9.333-9.334V61.42c13.673 5.553 23.333 18.947 23.333 34.58 0 9.707-3.733 18.527-9.8 25.153z" fill="#fff" fill-rule="evenodd"/>
    </g>
  </g>
</svg>
