<svg xmlns="http://www.w3.org/2000/svg" width="192" height="192">
  <defs>
    <clipPath id="a">
      <circle cx="96" cy="96" r="96" fill="none"/>
    </clipPath>
  </defs>
  <g fill="#ffffff">
    <path d="M0 0h192v192H0z"/>
    <g clip-path="url(#a)">
      <path fill="#000000" d="M0 0h192v192H0z"/>
      <path d="M49.333 97.4c0 9.8 7.934 17.733 17.734 17.733h19.6V124h-19.6c-14.467 0-26.134-11.667-26.134-26.133 0-13.534 10.267-24.734 23.334-26.134C69.867 61.467 80.6 54 93.2 54c16.333 0 29.4 11.2 32.667 25.667C137.533 80.6 146.4 89.933 146.4 101.6c0 .933-.467 1.4-.467 2.333l-8.866-3.733C136.133 93.667 131 88.533 124 88.533h-6.067V86.2c0-13.533-10.733-24.267-24.266-24.267-11.2 0-20.534 7.467-23.334 17.734h-3.266c-9.8 0-17.734 7.933-17.734 17.733zM96 125.54l42-6.207-42-6.253V96l56 23.571-56 23.096z" fill="#fff" fill-rule="evenodd"/>
    </g>
  </g>
</svg>
