<svg xmlns="http://www.w3.org/2000/svg" width="192" height="192">
  <defs>
    <clipPath id="a">
      <circle cx="96" cy="96" r="96" fill="none"/>
    </clipPath>
  </defs>
  <g fill="none">
    <path d="M0 0h192v192H0z"/>
    <g clip-path="url(#a)">
      <path fill="#ff8a65" d="M0 0h192v192H0z"/>
      <path d="M75 66.133l11.667 6.534L80.133 61l6.534-11.667L75 55.867l-11.667-6.534L69.867 61l-6.534 11.667zm56 45.734l-11.667-6.534L125.867 117l-6.534 11.667L131 122.133l11.667 6.534L136.133 117l6.534-11.667zm11.667-62.534L131 55.867l-11.667-6.534L125.867 61l-6.534 11.667L131 66.133l11.667 6.534L136.133 61zM107.06 74.02a4.648 4.648 0 0 0-6.58 0l-54.46 54.46a4.648 4.648 0 0 0 0 6.58l10.92 10.92a4.647 4.647 0 0 0 6.58 0l54.413-54.413a4.648 4.648 0 0 0 0-6.58zm-4.807 25.62l-9.893-9.893 11.387-11.387 9.893 9.893z" fill="#fff"/>
    </g>
  </g>
</svg>
