<svg xmlns="http://www.w3.org/2000/svg" width="192" height="192">
  <defs>
    <clipPath id="a">
      <circle cx="96" cy="96" r="96" fill="none"/>
    </clipPath>
  </defs>
  <g fill="#ffffff">
    <path d="M0 0h192v192H0z"/>
    <g clip-path="url(#a)">
      <path fill="#000000" d="M0 0h192v192H0z"/>
      <path d="M69.27 122.73c-5.647-5.646-5.647-14.816 0-20.458l13.206-13.207-6.277-6.262L63.007 96c-9.114 9.11-9.114 23.893 0 32.993 9.1 9.114 23.884 9.114 32.993 0l13.197-13.192-6.267-6.272-13.207 13.197c-5.637 5.647-14.807 5.647-20.454 0zm16.832-10.229l26.395-26.399-6.604-6.608-26.394 26.4zM96 63.007L82.803 76.195l6.267 6.272 13.207-13.198c5.637-5.646 14.807-5.646 20.454 0 5.646 5.647 5.646 14.817 0 20.459l-13.207 13.207 6.277 6.262L128.993 96c9.114-9.11 9.114-23.893 0-32.993-9.1-9.114-23.884-9.114-32.993 0z" fill="#fff" fill-rule="evenodd"/>
    </g>
  </g>
</svg>
